<svg xmlns="http://www.w3.org/2000/svg">
<path d="M4.90061 5.99997L0.228043 1.32726C-0.0760403 1.02332 -0.0760403 0.531895 0.228043 0.227955C0.531983 -0.075985 1.02341 -0.075985 1.32735 0.227955L6.00006 4.90066L10.6726 0.227955C10.9767 -0.075985 11.468 -0.075985 11.7719 0.227955C12.076 0.531895 12.076 1.02332 11.7719 1.32726L7.09937 5.99997L11.7719 10.6727C12.076 10.9766 12.076 11.468 11.7719 11.772C11.6205 11.9236 11.4213 11.9998 11.2223 11.9998C11.0233 11.9998 10.8242 11.9236 10.6726 11.772L6.00006 7.09928L1.32735 11.772C1.17574 11.9236 0.976718 11.9998 0.777698 11.9998C0.578677 11.9998 0.379657 11.9236 0.228043 11.772C-0.0760403 11.468 -0.0760403 10.9766 0.228043 10.6727L4.90061 5.99997Z" fill="white"/>
</svg>
